:SAMPLES-PER-SECOND 24
:FULLY-SPECIFIED
:DEGREES
482
root  -6.42253 39.7815 -1.16211 179.777 74.0543 170.002
RightUpLeg  -9.76748 6.70424 -10.1771
RightLeg  19.6752 -4.77299 -2.10432
RightFoot  -13.8146 0.0432095 6.38144
RightToes  -2.09809e-008 3.77894e-005 6.81332e-007
Spine  -6.97757 1.89227 5.19012
Spine1  6.59579 2.32731 -3.86945
HEad  -17.383 44.6381 -16.7974
LeftShoulder1  5.68626 -11.4233 -32.0974
LeftArm  4.28468 29.2676 -33.5885
LeftForeArm  172.39 -61.7253 -161.854
LeftHand  -0.109815 -2.56958 1.8097
RightShoulder  3.20896 5.90774 28.14
RightArm  15.4518 -31.391 33.1579
RightForeArm  158.722 71.1928 150.039
RightHand  -0.230825 9.40908 -2.20476
LeftUpLeg  -13.2666 1.20346 11.468
LeftLeg  14.0681 3.38407 1.86621
LeftFoot  1.37044 2.04615 -18.3052
LeftToes  1.24773e-006 1.46318e-008 1.32523e-009
483
root  -6.66179 39.161 -1.06757 179.671 74.425 170.866
RightUpLeg  -10.6919 9.08044 -9.51184
RightLeg  23.3885 -6.97603 -3.51162
RightFoot  -17.5889 0.193984 5.73626
RightToes  -2.09809e-008 3.77894e-005 6.81332e-007
Spine  -5.46434 1.87964 7.20196
Spine1  6.99486 2.7018 -5.61128
HEad  -18.453 44.5751 -17.5052
LeftShoulder1  5.82501 -11.5496 -32.6995
LeftArm  4.09349 24.9507 -31.7015
LeftForeArm  171.864 -64.4152 -159.677
LeftHand  -0.196707 -2.60147 3.07193
RightShoulder  3.16831 5.85661 27.885
RightArm  15.3291 -26.499 33.2562
RightForeArm  154.735 73.8798 144.274
RightHand  -0.315872 9.56231 -2.84588
LeftUpLeg  -13.966 -2.03405 12.1835
LeftLeg  17.7511 6.72463 2.75942
LeftFoot  -3.21658 1.31029 -18.0516
LeftToes  1.24773e-006 1.46318e-008 1.32523e-009
484
root  -6.82423 38.7428 -0.955812 -179.035 73.9853 173.067
RightUpLeg  -11.5256 9.95152 -8.47371
RightLeg  27.0154 -8.30195 -4.79469
RightFoot  -19.8363 0.28161 5.59596
RightToes  -2.09809e-008 3.77894e-005 6.81332e-007
Spine  -4.67905 1.73474 8.87333
Spine1  7.7673 2.76412 -6.54275
HEad  -19.0958 44.3332 -18.1042
LeftShoulder1  6.14484 -11.8597 -33.9919
LeftArm  3.24754 21.2709 -30.6768
LeftForeArm  172.709 -66.3889 -157.942
LeftHand  -0.205695 -2.70271 3.17047
RightShoulder  3.17321 5.82773 28.0474
RightArm  13.7471 -24.3186 33.4614
RightForeArm  149.957 75.7292 138.642
RightHand  -0.380183 9.52718 -3.34995
LeftUpLeg  -14.7092 -4.51525 12.8598
LeftLeg  20.5467 8.90964 3.99483
LeftFoot  -5.98523 0.872514 -17.7783
LeftToes  1.24773e-006 1.46318e-008 1.32523e-009
485
root  -6.85769 38.7025 -0.769924 -179.304 72.7081 173.433
RightUpLeg  -11.4214 9.59532 -7.87701
RightLeg  28.6051 -9.06891 -5.54597
RightFoot  -19.9475 0.29646 5.73764
RightToes  -2.09809e-008 3.77894e-005 6.81332e-007
Spine  -4.62561 1.40109 7.84402
Spine1  8.50743 2.16417 -5.20289
HEad  -18.6489 44.4478 -18.5476
LeftShoulder1  6.31209 -12.0163 -34.6604
LeftArm  2.10388 20.6948 -32.1904
LeftForeArm  173.897 -66.6312 -157.826
LeftHand  -0.174998 -2.74719 2.71651
RightShoulder  3.20724 5.83444 28.3986
RightArm  11.9646 -25.5242 33.5036
RightForeArm  148.735 75.6533 138.588
RightHand  -0.399345 8.89576 -3.62828
LeftUpLeg  -14.755 -6.18862 13.0371
LeftLeg  20.7898 9.8153 4.41391
LeftFoot  -5.52057 0.9434 -17.7888
LeftToes  1.24773e-006 1.46318e-008 1.32523e-009
486
root  -6.79459 38.955 -0.532525 179.508 70.6626 172.654
RightUpLeg  -9.74724 8.30077 -7.60791
RightLeg  27.055 -9.80171 -5.61808
RightFoot  -18.8574 0.239288 5.58939
RightToes  -2.09809e-008 3.77894e-005 6.81332e-007
Spine  -4.83724 0.655001 5.45875
Spine1  8.88953 0.95521 -2.82796
HEad  -16.9902 45.1277 -18.1825
LeftShoulder1  6.05041 -11.7082 -33.7697
LeftArm  1.4592 22.7396 -35.594
LeftForeArm  174.358 -65.4823 -158.984
LeftHand  -0.182258 -2.57167 2.87072
RightShoulder  3.28864 5.88152 29.1115
RightArm  11.119 -28.3049 33.4867
RightForeArm  151.433 74.3354 142.62
RightHand  -0.422237 8.39529 -3.92681
LeftUpLeg  -14.2657 -6.85145 13.0742
LeftLeg  18.9366 8.55764 3.57158
LeftFoot  -2.89694 1.37351 -18.2336
LeftToes  1.24773e-006 1.46318e-008 1.32523e-009
487
root  -6.69272 39.2815 -0.309008 -179.775 68.8034 173.351
RightUpLeg  -7.61968 6.89486 -6.92093
RightLeg  23.3836 -10.5453 -5.17074
RightFoot  -17.3291 0.140486 4.92983
RightToes  -2.09809e-008 3.77894e-005 6.81332e-007
Spine  -5.60585 0.138137 4.38515
Spine1  9.12201 0.0973083 -1.23771
HEad  -14.5201 45.5495 -17.1429
LeftShoulder1  5.83369 -11.4309 -33.0649
LeftArm  1.8115 24.9808 -37.4499
LeftForeArm  174.74 -64.1532 -160.196
LeftHand  -0.183604 -2.52702 2.90258
RightShoulder  3.3788 5.94411 29.8503
RightArm  10.7537 -31.2808 33.4008
RightForeArm  154.39 73.2253 145.629
RightHand  -0.391864 8.69121 -3.60825
LeftUpLeg  -14.0796 -5.79959 13.635
LeftLeg  16.6717 5.63489 2.33897
LeftFoot  0.0245441 1.86893 -18.642
LeftToes  1.24773e-006 1.46318e-008 1.32523e-009
488
root  -6.61831 39.493 -0.123029 -177.951 67.9368 174.546
RightUpLeg  -6.58607 6.15464 -6.16285
RightLeg  19.9797 -10.9625 -4.61603
RightFoot  -16.1362 0.0655496 4.1817
RightToes  -2.09809e-008 3.77894e-005 6.81332e-007
Spine  -6.9374 0.301078 4.9565
Spine1  9.24816 0.16163 -1.2027
HEad  -12.4795 45.3834 -16.4802
LeftShoulder1  5.86376 -11.4427 -33.2346
LeftArm  2.66964 26.4953 -37.0601
LeftForeArm  175.944 -63.1661 -161.116
LeftHand  -0.127201 -2.764 2.03022
RightShoulder  3.38522 5.95152 29.8911
RightArm  10.7621 -33.7786 33.3792
RightForeArm  155.976 72.5941 147.146
RightHand  -0.353205 8.76122 -3.27783
LeftUpLeg  -14.5593 -3.84662 14.2274
LeftLeg  15.1371 3.19283 1.70494
LeftFoot  2.13808 2.23738 -18.8964
LeftToes  1.24773e-006 1.46318e-008 1.32523e-009
489
root  -6.64512 39.5333 0.0401918 -176.809 67.9233 175.26
RightUpLeg  -6.39711 5.86767 -5.59957
RightLeg  18.2779 -10.8461 -4.43102
RightFoot  -15.9018 0.0364262 3.62401
RightToes  -2.09809e-008 3.77894e-005 6.81332e-007
Spine  -7.43561 0.797738 6.49242
Spine1  9.2176 0.818265 -2.35267
HEad  -12.1869 45.0071 -16.7817
LeftShoulder1  5.97387 -11.57 -33.6305
LeftArm  3.28446 27.0762 -35.8332
LeftForeArm  176.231 -62.6999 -161.503
LeftHand  -0.0973335 -2.80693 1.59947
RightShoulder  3.3333 5.91077 29.4855
RightArm  11.6139 -34.4301 33.1319
RightForeArm  156.343 72.3299 147.706
RightHand  -0.374736 8.64756 -3.47429
LeftUpLeg  -14.8738 -2.98808 14.6213
LeftLeg  14.3756 2.70296 1.69833
LeftFoot  2.9165 2.38214 -19.0384
LeftToes  1.24773e-006 1.46318e-008 1.32523e-009
490
root  -6.77418 39.4659 0.196199 -175.662 68.4018 176.773
RightUpLeg  -6.42473 6.38007 -4.76644
RightLeg  18.2309 -10.9378 -4.55005
RightFoot  -16.2031 0.0268771 3.21887
RightToes  -2.09809e-008 3.77894e-005 6.81332e-007
Spine  -7.39856 1.30658 8.66771
Spine1  10.4684 1.61795 -3.85521
HEad  -13.7604 44.5483 -18.002
LeftShoulder1  6.07807 -11.6974 -33.9809
LeftArm  3.34809 26.1645 -34.7428
LeftForeArm  175 -63.1849 -161.008
LeftHand  -0.143739 -2.6408 2.29236
RightShoulder  3.2969 5.88006 29.2079
RightArm  12.3761 -32.089 32.6686
RightForeArm  155.536 73.0639 146.151
RightHand  -0.347142 9.33262 -3.12856
LeftUpLeg  -14.6729 -3.28226 15.4168
LeftLeg  14.3943 3.53869 1.91598
LeftFoot  2.55428 2.31909 -19.0077
LeftToes  1.24773e-006 1.46318e-008 1.32523e-009
491
root  -6.92757 39.3683 0.336597 -174.027 68.871 178.923
RightUpLeg  -6.89526 7.20012 -3.86921
RightLeg  19.2357 -11.2122 -4.64675
RightFoot  -16.5308 0.0236756 2.99271
RightToes  -2.09809e-008 3.77894e-005 6.81332e-007
Spine  -7.1942 1.59423 10.7815
Spine1  11.8599 2.21252 -5.25274
HEad  -15.3092 44.2673 -19.1025
LeftShoulder1  6.0973 -11.7154 -34.059
LeftArm  3.06351 25.1503 -34.3538
LeftForeArm  174.818 -64.2589 -160.115
LeftHand  -0.17494 -2.67072 2.73638
RightShoulder  3.30877 5.91225 29.2137
RightArm  12.4808 -28.6001 32.103
RightForeArm  153.078 74.5125 142.494
RightHand  -0.280005 9.97515 -2.51597
LeftUpLeg  -14.8665 -4.29368 16.5444
LeftLeg  15.3737 5.1484 2.21683
LeftFoot  2.00513 2.23011 -19.0146
LeftToes  1.24773e-006 1.46318e-008 1.32523e-009
